<?xml version="1.0" encoding="UTF-8" standalone="no"?>
<!-- Created with Inkscape (http://www.inkscape.org/) -->

<svg
   width="239.77762mm"
   height="71.497421mm"
   viewBox="0 0 239.77762 71.497421"
   version="1.1"
   id="svg53"
   inkscape:version="1.1.1 (3bf5ae0d25, 2021-09-20)"
   sodipodi:docname="devanture.svg"
   xmlns:inkscape="http://www.inkscape.org/namespaces/inkscape"
   xmlns:sodipodi="http://sodipodi.sourceforge.net/DTD/sodipodi-0.dtd"
   xmlns="http://www.w3.org/2000/svg"
   xmlns:svg="http://www.w3.org/2000/svg">
  <sodipodi:namedview
     id="namedview55"
     pagecolor="#505050"
     bordercolor="#eeeeee"
     borderopacity="1"
     inkscape:pageshadow="0"
     inkscape:pageopacity="0"
     inkscape:pagecheckerboard="0"
     inkscape:document-units="mm"
     showgrid="false"
     showborder="false"
     inkscape:zoom="0.7500982"
     inkscape:cx="341.95522"
     inkscape:cy="180.64301"
     inkscape:window-width="1920"
     inkscape:window-height="1027"
     inkscape:window-x="-8"
     inkscape:window-y="-8"
     inkscape:window-maximized="1"
     inkscape:current-layer="layer1" />
  <defs
     id="defs50" />
  <g
     inkscape:label="Calque 1"
     inkscape:groupmode="layer"
     id="layer1"
     transform="translate(13.230836,-100.77203)">
    <path
       style="fill:#000000;stroke-width:0.169333"
       d="m 12.79894,172.06921 c -4.825529,-0.76512 -7.915023,-2.25173 -10.884406,-5.23737 -2.75686397,-2.77197 -4.483727,-6.61235 -5.211052,-11.5889 -0.418122,-2.86091 0.01426,-6.95174 1.12643,-10.65738 0.876559,-2.92059 1.29722403,-3.94398 2.61404003,-6.35937 1.77791897,-3.26118 2.59082197,-4.39129 4.64748297,-6.46103 2.99168,-3.01071 5.643904,-4.773 9.272258,-6.16103 3.065283,-1.17262 7.029632,-1.35449 9.695914,-0.4448 3.49134,1.19119 6.341469,4.01866 7.544172,7.48419 1.259522,3.62924 1.148172,8.47296 -0.286634,12.46857 -1.376021,3.83191 -4.313628,7.73247 -7.351131,9.76083 -2.659175,1.77573 -5.273075,1.95236 -6.907887,0.4668 -1.071306,-0.97351 -1.400827,-2.60665 -0.977922,-4.84671 0.548613,-2.9059 2.183916,-5.51005 5.2393,-8.34335 0.968546,-0.89814 1.855266,-1.86058 1.970485,-2.13875 0.193524,-0.46721 0.167379,-0.55815 -0.343068,-1.19334 -0.303907,-0.37817 -0.499778,-0.74036 -0.435273,-0.80486 0.06451,-0.0645 0.500011,-0.0389 0.967788,0.0569 0.8272,0.16945 0.859913,0.16101 1.193952,-0.3081 0.405432,-0.56938 0.656218,-0.48657 0.656218,0.21668 0,0.51113 0.339091,0.93163 1.264205,1.56771 0.537107,0.36929 0.407103,0.57049 -0.417539,0.64619 l -0.592666,0.0544 -0.08467,1.00972 -0.08467,1.00972 -0.617099,-0.74491 -0.617102,-0.7449 -0.991565,0.58185 c -0.545362,0.32001 -1.760496,1.34385 -2.700298,2.27518 -1.486669,1.47327 -1.811233,1.90239 -2.497487,3.302 -0.433817,0.88477 -0.912104,2.10271 -1.06286,2.70655 -0.32655,1.30797 -0.249113,3.05009 0.171757,3.86396 0.856561,1.6564 3.25185,1.5991 5.778745,-0.13826 1.148712,-0.78979 3.311818,-3.05388 4.245697,-4.44391 2.71083,-4.03491 3.571103,-9.20979 2.147722,-12.91938 -1.150486,-2.99837 -4.57743,-5.86574 -8.090843,-6.76971 -1.495293,-0.38472 -4.127248,-0.57949 -5.500587,-0.40705 -5.359467,0.67296 -11.227613,5.21217 -14.094241,10.90237 -0.86452597,1.71607 -2.01943297,4.66755 -2.57041997,6.56898 -1.13561403,3.91893 -0.90035903,9.39157 0.555739,12.92794 1.75823897,4.27018 3.70974797,6.47513 7.19628897,8.13088 1.026272,0.48737 1.763905,0.68903 3.456303,0.9449 2.624393,0.39677 4.21565,0.31329 6.886782,-0.36132 2.375596,-0.59996 4.062556,-1.37629 6.436832,-2.96218 5.548004,-3.70577 9.475445,-8.26959 12.360999,-14.36392 3.535177,-7.46633 4.285565,-16.51909 1.959337,-23.63762 -0.593684,-1.81674 -2.2675,-5.52452 -2.78491,-6.16903 l -0.379566,-0.47281 -2.951279,0.5225 c -2.613094,0.46263 -8.789461,1.60669 -15.058611,2.78933 -1.164167,0.21961 -5.088467,0.97405 -8.720667,1.67652 -8.40921797,1.62637 -12.217742,2.30689 -12.911667,2.3071 -0.434902,1.3e-4 -0.550333,-0.0699 -0.550333,-0.33377 0,-0.25767 0.203033,-0.392 0.889,-0.58818 1.177077,-0.33662 12.915319,-2.93777 24.426333,-5.41279 12.368019,-2.65928 13.292667,-2.87871 13.292667,-3.15449 0,-0.27737 -3.087963,-3.38279 -4.216099,-4.23993 -1.548861,-1.1768 -4.192883,-2.44289 -6.201877,-2.96978 -3.579202,-0.9387 -8.817776,-0.65155 -12.917449,0.70805 -6.707431,2.22444 -12.04326,6.37701 -16.212535,12.6173 -1.241623,1.85837 -2.954707,5.04389 -2.954707,5.49434 0,0.2331 0.06952,0.264 1.323286,0.58814 0.862612,0.22301 0.85586,0.51738 -0.01749,0.76242 -0.997525,0.27987 -1.063053,0.43955 -0.619535,1.50961 0.214684,0.51797 0.343956,0.98814 0.28727,1.04482 -0.05669,0.0567 -0.446,-0.13288 -0.865142,-0.42126 -0.419142,-0.28837 -0.842642,-0.52432 -0.94111,-0.52432 -0.09847,0 -0.381792,0.3212 -0.62961,0.71376 -0.437155,0.6925 -0.454959,0.70192 -0.597644,0.31621 -0.08089,-0.21866 -0.09901,-0.75978 -0.04029,-1.2025 0.117004,-0.88202 0.02962,-1.02002 -1.10402,-1.74354 -0.898322,-0.57334 -0.858907,-0.79326 0.142168,-0.79326 1.007593,0 1.538111,-0.39911 1.538111,-1.15711 0,-0.72808 0.200581,-0.7817 0.688392,-0.18401 l 0.442271,0.54189 0.804493,-1.59005 c 2.068462,-4.08825 6.025972,-9.13993 8.77491103,-11.20099 4.48852997,-3.36536 7.33866897,-4.74152 12.57326697,-6.07087 4.337956,-1.10165 7.817212,-1.14787 11.667893,-0.15501 3.60674,0.92996 6.566045,2.62706 10.062741,5.77079 l 1.918633,1.72496 1.468034,-0.28473 c 0.807417,-0.15659 5.430431,-1.16135 10.273371,-2.23279 4.84293,-1.07144 10.02453,-2.21532 11.51466,-2.54195 1.49014,-0.32663 7.66234,-1.81873 13.716,-3.31578 6.05367,-1.49704 11.42577,-2.77765 11.938,-2.84578 1.12741,-0.14997 2.34832,0.0419 3.42941,0.53901 l 0.80474,0.37002 0.39917,-0.37499 c 0.34387,-0.32306 0.4593,-0.3476 0.8333,-0.1772 0.7048,0.32113 1.50847,0.0469 3.31156,-1.12994 l 1.69418,-1.10577 0.65213,0.33269 c 0.7645,0.39001 2.06926,0.61707 2.67391,0.46531 0.24197,-0.0607 0.60802,-0.39606 0.84894,-0.7777 0.480703,-0.76149 1.126123,-1.01978 1.676553,-0.67095 0.96284,0.61018 1.19686,0.66681 1.88672,0.45653 0.39591,-0.12069 1.04762,-0.56893 1.59287,-1.09558 0.50755,-0.49023 1.00285,-0.89022 1.10067,-0.88887 0.0978,10e-4 0.48265,0.10806 0.85519,0.23713 0.73789,0.25564 1.66018,0.3417 3.18452,0.29714 l 0.98319,-0.0287 0.33447,-0.75613 c 0.58991,-1.3336 1.6859,-1.67522 2.68294,-0.83627 l 0.52244,0.4396 0.61206,-0.53739 c 0.64926,-0.57006 1.19354,-0.59302 1.76904,-0.0746 0.34208,0.30813 0.56965,0.30453 0.83334,-0.0132 0.49602,-0.59768 1.524,-0.0638 1.524,0.79142 0,0.56947 -0.54383,1.05177 -1.0167,0.90169 -0.28829,-0.0915 -0.48652,0.0281 -0.95667,0.5774 -0.66818,0.78062 -0.92486,0.8345 -1.70614,0.35813 l -0.54685,-0.33342 -0.19398,0.37639 c -0.67222,1.30432 -1.54525,1.47664 -2.76483,0.54572 -0.42703,-0.32597 -0.94722,-0.59192 -1.15597,-0.59101 -0.56397,0.002 -1.93359,0.69572 -3.13675,1.58773 l -1.06389,0.78876 -1.40989,-0.43958 c -1.91143,-0.59596 -2.41433,-0.52955 -3.03767,0.40111 -0.59587,0.88965 -1.18878,1.16779 -1.70252,0.79866 -0.19698,-0.14153 -0.532473,-0.38336 -0.745533,-0.53739 -0.59286,-0.42862 -1.51674,-0.0705 -2.74003,1.06204 l -1.01758,0.9421 -0.794,-0.27054 c -0.49637,-0.16913 -1.36636,-0.27055 -2.3209,-0.27055 -1.42377,0 -1.55877,0.0305 -1.99865,0.45197 -0.4254,0.40755 -0.51701,0.43134 -0.93238,0.24209 -0.43178,-0.19673 -0.49961,-0.16767 -1.08286,0.46399 -0.81251,0.87994 -1.76313,1.46881 -2.88775,1.78882 -0.50002,0.14228 -3.65233,0.7222 -7.00513,1.28871 -3.3528,0.56651 -7.239,1.25077 -8.636,1.52057 -1.397,0.26981 -4.6736,0.88084 -7.28133,1.35786 -7.84514,1.43505 -13.44502,2.49854 -18.71134,3.55351 -2.747432,0.55038 -5.357282,1.05099 -5.799666,1.11248 -0.463584,0.0644 -0.804333,0.20013 -0.804333,0.32031 0,0.11469 0.307162,0.68376 0.682581,1.26461 2.140617,3.31195 3.602948,7.57563 4.505208,13.13575 0.41111,2.53342 0.41249,7.9423 0.003,10.31752 -0.67398,3.90585 -1.853806,7.80209 -3.247946,10.726 -3.639637,7.63333 -10.516021,13.89659 -17.334907,15.78925 -3.900136,1.08252 -6.730571,1.35562 -9.499568,0.91658 z m 74.786907,-4.10769 c -0.45593,-0.50379 -0.36476,-1.03393 0.26224,-1.52488 0.24402,-0.19107 0.3686,-0.17855 0.80839,0.0812 0.68127,0.40244 0.97309,0.22238 1.56327,-0.9646 0.47376,-0.95282 1.57904,-4.43964 1.68342,-5.31065 0.10668,-0.89019 -0.30687,-0.64029 -0.69303,0.41879 -0.38987,1.06925 -1.31222,2.26727 -1.8857,2.44928 -0.51494,0.16344 -0.94917,-0.0585 -1.17333,-0.59965 -0.39257,-0.94775 0.18833,-2.57974 1.25006,-3.51195 0.77116,-0.67709 1.16945,-0.78956 1.74831,-0.49369 0.83034,0.42441 1.1051,0.15677 1.73277,-1.68787 1.14101,-3.35331 1.62365,-3.99582 3.02341,-4.02494 0.83593,-0.0174 1.22128,0.32697 1.22128,1.09138 0,0.73588 -0.49646,1.04554 -1.46934,0.91648 -0.6034,-0.08 -0.88121,-0.0475 -1.0132,0.11856 -0.24526,0.30863 -0.86802,2.15943 -0.93493,2.77855 -0.0513,0.47509 -0.0204,0.50071 0.66581,0.55036 0.49,0.0354 0.71966,0.13002 0.71966,0.29633 0,0.38347 -0.63562,0.9216 -1.08857,0.9216 -0.55487,0 -0.89877,0.38141 -1.11377,1.23528 -0.56129,2.22917 -1.44452,4.89899 -1.91481,5.78808 -0.42877,0.8106 -0.6946,1.09818 -1.29506,1.40097 -0.91726,0.46255 -1.71817,0.4898 -2.09688,0.0713 z m 2.23296,-6.77964 c 0.25542,-0.85254 0.26361,-1.6819 0.0141,-1.43242 -0.28361,0.2836 -0.62954,1.42283 -0.53816,1.77226 0.12851,0.49144 0.31027,0.37356 0.52402,-0.33984 z m 73.062873,4.54813 c -0.46018,-0.18541 -0.73074,-0.67272 -0.73074,-1.31611 0,-0.65227 0.47458,-1.05338 1.24631,-1.05338 0.73427,0 0.9331,0.31419 0.65876,1.04097 -0.16185,0.4288 -0.14508,0.48303 0.14934,0.48303 0.55146,0 1.16293,-0.75274 1.16293,-1.43163 0,-0.56548 -0.0322,-0.60037 -0.55499,-0.60037 -0.7768,0 -1.30768,-0.41477 -1.30768,-1.02169 0,-0.73207 0.63925,-1.10415 1.51506,-0.88184 0.58913,0.14953 0.70615,0.12621 1.01476,-0.2023 0.43744,-0.46563 0.4454,-0.87858 0.0213,-1.10554 -0.48258,-0.25828 -0.57502,-0.2237 -0.89225,0.33378 -0.33827,0.59448 -0.83117,0.6573 -1.3202,0.16826 -0.46271,-0.4627 -0.42581,-0.78558 0.15631,-1.36769 0.40139,-0.40139 0.64001,-0.49498 1.26202,-0.49498 0.4219,0 0.96686,0.091 1.21106,0.20231 0.45164,0.20577 0.92661,0.92235 0.92661,1.39795 0,0.37199 0.1274,0.3285 0.59544,-0.20326 0.32512,-0.36939 0.41109,-0.65821 0.41583,-1.397 0.007,-1.14409 0.40703,-1.8629 1.26118,-2.26822 0.71757,-0.3405 1.52161,-0.17338 2.06741,0.42971 0.46133,0.50978 0.41823,1.61081 -0.0911,2.32533 -0.38425,0.53912 -0.39518,0.6189 -0.19281,1.40853 0.41524,1.62016 -0.48846,2.89217 -2.05472,2.89217 -0.83666,0 -1.4689,-0.4356 -1.8094,-1.24665 -0.15211,-0.36232 -0.32083,-0.65953 -0.37493,-0.66048 -0.26682,-0.005 -0.52235,0.90644 -0.5491,1.95781 -0.0222,0.8718 -0.11684,1.29212 -0.36852,1.63634 -0.67318,0.92073 -2.359,1.4016 -3.41793,0.97495 z m 7.05086,-4.13817 c 0.27025,-0.32562 0.16383,-0.94596 -0.20158,-1.175 -0.23269,-0.14587 -0.37141,-0.10684 -0.66544,0.18719 -0.31925,0.31924 -0.3439,0.432 -0.17533,0.80198 0.21702,0.4763 0.72598,0.56704 1.04235,0.18583 z m 0.54474,-3.25289 c 0.39765,-0.35987 0.39624,-0.84684 -0.003,-1.06054 -0.53476,-0.2862 -0.88316,0.33631 -0.60049,1.07293 0.12954,0.33757 0.21886,0.33574 0.60355,-0.0124 z m -110.428003,5.62188 c -0.15502,-0.1868 -0.1821,-0.56999 -0.0967,-1.36784 0.11692,-1.09176 -0.15491,-3.4658 -0.39683,-3.4658 -0.11902,0 -0.87181,0.98495 -1.79766,2.35205 -0.88196,1.30228 -2.57557,2.07672 -3.19247,1.45981 -0.35491,-0.3549 -0.35831,-0.82483 -0.008,-1.12413 0.14955,-0.12782 0.73968,-0.42362 1.3114,-0.65733 1.02063,-0.41722 1.07096,-0.46949 2.77152,-2.87867 0.9526,-1.34955 1.73407,-2.54898 1.7366,-2.6654 0.006,-0.2819 -0.41178,-0.26775 -0.99469,0.0337 -0.44404,0.22962 -0.90243,0.71274 -1.84994,1.94975 -0.77705,1.01447 -1.92738,0.47433 -1.51418,-0.71098 0.33115,-0.94994 1.56065,-1.68543 4.75413,-2.84391 1.76478,-0.6402 2.02879,-0.69592 2.24989,-0.47483 0.33848,0.33849 0.17725,0.67471 -0.63761,1.32955 -0.98453,0.79118 -1.32184,1.64594 -1.30193,3.29907 0.009,0.74506 0.0655,1.58326 0.12572,1.86266 l 0.1094,0.508 0.83503,-1.18533 c 1.99975,-2.83867 3.74506,-4.70821 5.44647,-5.83416 2.54687,-1.68544 4.97082,-1.96897 7.2482,-0.84782 0.6368,0.31349 1.31366,0.55825 1.50413,0.5439 0.19047,-0.0143 0.56133,0.10093 0.82413,0.25617 0.80299,0.47434 0.52738,1.22524 -0.44969,1.22524 -0.28662,0 -0.69188,0.11961 -0.90059,0.26579 -0.51182,0.3585 -1.20268,1.76275 -1.33223,2.70792 -0.10509,0.76671 -0.1035,0.76975 0.34425,0.65737 0.94826,-0.23799 1.31482,0.88104 0.53009,1.61826 -0.47411,0.4454 -0.55068,1.11577 -0.18463,1.61639 0.22645,0.30967 0.25527,0.31146 0.56098,0.0348 0.17725,-0.16041 0.4606,-0.7309 0.62968,-1.26776 0.52139,-1.65547 1.90466,-2.6039 2.49689,-1.71196 l 0.24222,0.36481 0.78334,-0.45906 c 0.77002,-0.45126 0.78643,-0.4533 0.9651,-0.11945 0.17337,0.32396 0.2043,0.32667 0.67083,0.0589 0.41747,-0.2396 0.53009,-0.24665 0.76923,-0.0482 0.45323,0.37615 0.26939,1.07488 -0.32964,1.25289 -1.20622,0.35844 -1.28586,0.43492 -1.96728,1.88902 -0.70537,1.50523 -0.94861,1.68626 -1.54296,1.14837 -0.25873,-0.23414 -0.37412,-0.25003 -0.606,-0.0834 -0.77726,0.55841 -1.0509,0.61354 -1.5581,0.31393 -0.4508,-0.2663 -0.54412,-0.2687 -1.11813,-0.0289 -0.56586,0.23644 -0.65443,0.2362 -0.91817,-0.002 -0.16054,-0.14529 -0.34008,-0.56546 -0.39896,-0.93371 -0.13006,-0.81336 -0.33258,-0.8533 -0.60451,-0.11921 -0.42904,1.15823 -0.84688,1.44798 -1.26449,0.87686 -0.20242,-0.27683 -0.24219,-0.27779 -0.61756,-0.0149 -0.43719,0.30622 -1.09591,0.3726 -1.24845,0.12579 -0.0546,-0.0883 -0.39061,-0.0394 -0.7796,0.11335 -0.61963,0.24339 -0.70844,0.24379 -0.94804,0.004 -0.87587,-0.87586 1.48237,-4.5343 2.92283,-4.5343 0.68853,0 0.82649,0.40894 0.51543,1.52778 -0.154,0.55391 -0.28,1.08446 -0.28,1.17899 0,0.27456 0.43232,0.19884 0.71055,-0.12444 0.34633,-0.40242 1.99878,-5.19676 1.99878,-5.79919 0,-0.75465 -0.70904,-1.45768 -1.71307,-1.69855 -1.60232,-0.38439 -3.36856,0.0876 -4.84005,1.29337 -1.04284,0.85453 -1.51231,1.89273 -1.84099,4.0712 -0.44597,2.9559 -0.47407,2.80184 0.56245,3.08355 0.92194,0.25057 1.08813,0.49385 0.60903,0.89155 -0.28367,0.23547 -3.46913,0.34902 -3.68722,0.13143 -0.0557,-0.0555 0.098,-0.55083 0.34151,-1.10066 0.46983,-1.06096 0.9118,-2.86544 0.90844,-3.70903 l -0.002,-0.508 -0.47604,0.52278 c -0.26181,0.28753 -1.09491,1.54483 -1.85131,2.794 -2.00404,3.30957 -1.97123,3.26604 -2.22839,2.95619 z m 18.58172,-2.49414 c 0.12412,0.37237 0.33916,0.20386 0.61289,-0.48026 0.31945,-0.79838 0.35148,-1.35124 0.0783,-1.35124 -0.10676,0 -0.54905,0.32385 -0.98286,0.71967 -0.43382,0.39581 -0.93133,0.80058 -1.10558,0.89947 -0.17969,0.10199 -0.26415,0.26503 -0.19514,0.3767 0.0899,0.14549 0.30492,0.12357 0.82363,-0.084 0.51409,-0.2057 0.71983,-0.2272 0.76878,-0.0804 z m -8.18366,-0.17584 c 0.37283,-0.5323 0.3567,-1.52909 -0.0236,-1.45586 -0.29349,0.0565 -0.77244,0.76831 -0.97648,1.4512 -0.0969,0.32417 -0.0504,0.381 0.3113,0.381 0.24737,0 0.53536,-0.15737 0.68874,-0.37634 z m 103.387603,2.29118 c -0.77736,-0.13046 -1.49484,-0.40567 -1.69904,-0.65171 -0.16572,-0.19969 0.0453,-0.48121 1.17179,-1.56319 1.32004,-1.26789 1.68549,-1.90127 1.09701,-1.90127 -0.15232,0 -0.45348,0.1905 -0.66926,0.42333 -0.21578,0.23283 -0.50094,0.42333 -0.63368,0.42333 -0.37915,0 -0.65107,-0.44297 -0.59139,-0.96342 0.0424,-0.36988 0.22435,-0.56266 0.81657,-0.86527 0.92538,-0.47285 1.6104,-0.39433 2.17636,0.24946 0.53763,0.61156 0.41358,1.27493 -0.48619,2.59989 -0.73599,1.08379 -0.77941,1.33954 -0.1723,1.01462 0.19885,-0.10642 0.56734,-0.16974 0.81885,-0.14072 0.35958,0.0415 0.46895,0.15446 0.51186,0.52868 0.0814,0.7095 -0.22907,0.96699 -1.13364,0.94037 -0.43098,-0.0127 -0.9741,-0.055 -1.20694,-0.0941 z m 8.17034,-0.34606 c -0.35985,-0.1241 -0.23355,-0.65778 0.20271,-0.85655 0.2279,-0.10385 0.52608,-0.36373 0.66261,-0.57752 0.26415,-0.41361 2.30968,-6.94213 2.30968,-7.37155 0,-0.2128 -0.25676,-0.24299 -1.57582,-0.1853 -1.2835,0.0561 -1.75143,0.15484 -2.52249,0.53209 -1.43334,0.70126 -1.48866,0.82011 -1.22856,2.63956 0.11236,0.78607 0.0868,0.94625 -0.18226,1.143 -0.45452,0.33235 -1.21263,0.28039 -1.60287,-0.10984 -0.45294,-0.45294 -0.45077,-1.65644 0.005,-2.54902 0.35949,-0.70468 1.36088,-1.53642 2.36606,-1.96524 2.46299,-1.05072 7.45053,-0.93657 8.42194,0.19275 0.62628,0.72811 0.43211,1.90252 -0.44593,2.69715 -0.48255,0.43671 -0.45119,0.55068 0.21175,0.76947 1.36428,0.45026 1.73548,1.69316 0.96332,3.22555 -0.79265,1.57308 -1.71708,2.16049 -3.6024,2.28909 -2.22189,0.15156 -3.76709,0.20059 -3.98235,0.12636 z m 4.78366,-1.21149 c 0.92383,-0.42638 1.45065,-1.04484 1.55228,-1.82231 0.12812,-0.98001 -0.16654,-1.54702 -1.00069,-1.92564 -0.90195,-0.40941 -1.68968,-0.42427 -2.03176,-0.0383 -0.41572,0.46902 -1.46911,3.82883 -1.2468,3.97674 0.36289,0.24146 2.0458,0.12393 2.72697,-0.19045 z m 0.46567,-5.60341 c 0.83063,-0.92141 0.54756,-2.03521 -0.51725,-2.03521 -0.25464,0 -0.42724,0.28002 -0.77312,1.25431 -0.24491,0.68987 -0.4453,1.30945 -0.4453,1.37682 0,0.32861 1.30665,-0.12002 1.73567,-0.59592 z m -104.831623,6.49977 c -0.24188,-0.16942 -0.36658,-0.40649 -0.33402,-0.635 0.0408,-0.2862 0.19769,-0.38286 0.72931,-0.44932 0.74611,-0.0933 0.72442,-0.0138 0.56335,-2.06403 -0.0838,-1.06725 0.86021,-1.78419 1.73378,-1.31668 0.60167,0.32201 0.31721,1.34871 -0.37367,1.34871 -0.45271,0 -0.50484,0.23738 -0.22583,1.0282 0.19789,0.56088 0.21491,0.85013 0.075,1.27417 -0.32146,0.97401 -1.37477,1.36948 -2.16789,0.81395 z m 75.663953,-0.0683 c -0.46917,-0.46917 -0.42499,-1.09965 0.18988,-2.70984 0.41139,-1.07735 0.64597,-1.45572 1.05833,-1.70717 0.66946,-0.40822 0.87147,-0.40597 1.29179,0.0143 0.57367,0.57368 0.42405,1.01323 -0.70507,2.0711 -0.57404,0.53784 -0.99392,1.02769 -0.93306,1.08856 0.0609,0.0609 0.41878,-0.0283 0.79536,-0.19808 0.71047,-0.32038 1.11476,-0.20296 0.92881,0.26977 -0.12275,0.3121 -1.75285,1.50998 -2.05479,1.50998 -0.12792,0 -0.38498,-0.1524 -0.57125,-0.33866 z m 34.62867,0.0977 c -1.61488,-0.7238 -2.13727,-2.36355 -1.51684,-4.76114 0.50705,-1.95941 2.11523,-3.94976 3.79729,-4.6997 0.87367,-0.38953 2.1711,-0.43773 3.29705,-0.12248 0.67073,0.18779 0.8221,0.17873 1.20496,-0.0721 0.41551,-0.27225 0.4243,-0.30763 0.17204,-0.69262 -0.1462,-0.22315 -0.26583,-0.62776 -0.26583,-0.89913 0,-0.88585 1.36013,-1.09828 1.90469,-0.29749 0.16913,0.24871 -0.009,1.05615 -0.40721,1.84203 -0.4676,0.92368 -2.85513,3.33962 -3.30036,3.33962 -0.51374,0 -0.60694,-0.41257 -0.2078,-0.91997 0.18757,-0.23847 0.31667,-0.60528 0.28686,-0.81514 -0.11386,-0.80178 -1.87543,-0.44994 -3.15285,0.62972 -0.69388,0.58646 -1.28883,1.73897 -1.65953,3.21478 -0.48533,1.93206 0.13213,3.03942 1.67882,3.01081 0.38979,-0.007 1.04436,-0.16468 1.45462,-0.34993 0.82322,-0.37174 1.20142,-0.32455 1.20142,0.1499 0,0.36049 -0.84082,1.04917 -1.73934,1.42459 -0.75809,0.31675 -2.06273,0.32543 -2.74799,0.0183 z m 5.00007,-0.17351 c -0.1177,-0.21995 -0.16244,-0.48338 -0.0994,-0.58539 0.16322,-0.26411 0.69405,-0.22942 0.93515,0.0611 0.23109,0.27845 0.12954,0.52214 -0.31722,0.76123 -0.24023,0.12858 -0.34969,0.0786 -0.51855,-0.23694 z m -72.70219,-0.059 c -0.15149,-0.1674 -0.48851,-0.83419 -0.74892,-1.48176 -0.26041,-0.64757 -0.54778,-1.1774 -0.63859,-1.1774 -0.0908,0 -0.46111,0.54801 -0.82288,1.21779 -0.68367,1.26575 -1.03778,1.57171 -1.39053,1.20144 -0.11418,-0.11984 -0.75574,-1.56719 -1.42571,-3.21632 -1.04559,-2.57375 -1.61022,-3.68349 -2.45525,-4.82567 -0.23938,-0.32355 0.18153,-0.55265 1.016,-0.553 1.18639,-5e-4 1.37756,0.11102 1.30187,0.75937 -0.0497,0.42556 0.211,1.23245 1.00864,3.12213 0.5916,1.40155 1.15901,2.54826 1.2609,2.54826 0.10189,0 0.32275,-0.2553 0.4908,-0.56735 0.45342,-0.84196 0.27025,-1.8391 -0.6948,-3.78226 -0.4539,-0.91395 -0.84884,-1.71193 -0.87764,-1.77329 -0.0927,-0.19741 0.96814,-0.3438 1.65291,-0.22811 0.63454,0.10721 0.6555,0.13081 0.47262,0.53218 -0.15263,0.33498 -0.12736,0.6083 0.12485,1.35028 0.17392,0.51166 0.37576,0.96709 0.44854,1.01207 0.17514,0.10824 0.82264,-1.17309 0.82264,-1.6279 0,-0.1961 -0.0841,-0.51363 -0.18681,-0.70562 -0.14332,-0.26778 -0.13346,-0.38519 0.0423,-0.50421 0.23019,-0.15585 1.60397,-0.0921 1.77861,0.0826 0.0514,0.0514 -0.10105,0.34835 -0.33873,0.65996 -0.50975,0.66832 -1.46473,2.84419 -1.46473,3.33732 0,0.37679 0.85105,2.21436 1.02556,2.21436 0.24651,0 1.85297,-4.39242 1.85306,-5.06666 2e-5,-0.2255 -0.11618,-0.53843 -0.25823,-0.69539 -0.4084,-0.45128 0.0482,-0.70023 1.17223,-0.63916 l 0.94253,0.0512 -0.67169,1.29535 c -0.36942,0.71244 -1.12263,2.594 -1.6738,4.18123 -0.55116,1.58724 -1.11196,3.04273 -1.24622,3.23442 -0.23427,0.33445 -0.25524,0.33624 -0.51956,0.0442 z m 21.42042,0.12536 c -0.30061,-0.12055 -0.37981,-0.26654 -0.33867,-0.62426 0.0461,-0.40109 0.13002,-0.46692 0.59495,-0.46692 0.83354,0 0.97499,-0.24357 0.73132,-1.2593 -0.24184,-1.00811 -0.14134,-1.56155 0.37008,-2.03802 0.44487,-0.41446 0.94111,-0.43783 1.46755,-0.0691 0.31265,0.219 0.47539,0.23606 0.80764,0.0847 0.59516,-0.27117 1.37452,-0.23393 1.5468,0.0739 0.13223,0.23629 0.20015,0.23326 0.65763,-0.0293 0.47299,-0.27146 0.53887,-0.2727 0.9038,-0.0171 0.36929,0.25865 0.42476,0.25353 0.89707,-0.0828 0.35899,-0.25562 0.57738,-0.31185 0.76109,-0.19597 0.49543,0.31251 0.52136,0.8128 0.10394,2.00646 -0.46647,1.33394 -0.45437,1.2725 -0.25064,1.2725 0.0855,0 0.31523,-0.4799 0.51042,-1.06644 0.45072,-1.35444 0.75857,-1.78794 1.48528,-2.09158 0.68468,-0.28608 1.17544,-0.17643 1.32544,0.29614 0.13979,0.44046 -0.19389,0.82988 -0.7111,0.82988 -0.56525,0 -1.16769,0.65376 -1.31218,1.42396 -0.14646,0.78069 -0.0595,0.891 0.50119,0.63554 0.66164,-0.30145 0.92409,-0.24366 0.92409,0.20347 0,0.27535 -0.2097,0.54562 -0.67178,0.86584 -0.55385,0.38383 -0.78418,0.44664 -1.31233,0.35786 -0.95395,-0.16035 -1.10602,-0.16257 -1.60998,-0.0235 -0.39071,0.10785 -0.49119,0.062 -0.65573,-0.29911 -0.1539,-0.33777 -0.13717,-0.5942 0.0804,-1.23279 0.1511,-0.44347 0.27231,-0.92609 0.26935,-1.07248 -0.01,-0.47395 -0.4705,0.29867 -0.74836,1.25448 -0.33009,1.13546 -0.73913,1.52676 -1.31955,1.26231 -0.31075,-0.14159 -0.517,-0.14329 -0.77282,-0.006 -0.19193,0.10271 -0.50258,0.18675 -0.69034,0.18675 -0.6106,0 -0.67142,-0.45269 -0.25777,-1.91859 0.21338,-0.75613 0.36068,-1.40206 0.32734,-1.4354 -0.0333,-0.0333 -0.49068,-0.007 -1.01634,0.0588 -0.79472,0.0993 -0.93591,0.16583 -0.83811,0.39496 0.63291,1.48278 0.63531,1.8326 0.0173,2.51922 -0.36471,0.40518 -1.07052,0.48548 -1.77695,0.20219 z m 5.44192,-1.92536 c 0.214,-0.62807 0.21882,-0.79951 0.0298,-1.05807 -0.27878,-0.38125 -0.41302,-0.2546 -0.79401,0.74908 -0.23144,0.60971 -0.25208,0.81863 -0.091,0.92096 0.41264,0.26213 0.60407,0.12515 0.85524,-0.61197 z m 37.56757,1.65193 c 0.0399,-0.34791 0.1476,-0.47909 0.39354,-0.47909 0.52116,0 0.4708,0.82795 -0.0549,0.90243 -0.3422,0.0485 -0.38638,-0.007 -0.33866,-0.42334 z m -89.05679,0.15807 c -0.944463,-0.0661 -1.148383,-0.29292 -0.488763,-0.54371 0.220133,-0.0837 0.448733,-0.27854 0.508003,-0.43299 0.13602,-0.35447 0.14219,-5.62663 0.007,-6.30073 -0.0618,-0.309 -0.28963,-0.61373 -0.592673,-0.79274 -0.27075,-0.15994 -0.49227,-0.36269 -0.49227,-0.45056 0,-0.0945 1.309603,-0.15976 3.205923,-0.15976 3.00974,0 3.21222,0.0198 3.30884,0.32427 0.12819,0.40388 -0.0595,1.19973 -0.28298,1.19973 -0.0914,0 -0.29268,-0.15616 -0.44731,-0.34702 -0.58909,-0.72714 -2.68069,-0.79363 -3.16607,-0.10066 -0.2844,0.40605 -0.3295,1.67184 -0.0764,2.14474 0.0942,0.17607 0.45618,0.39961 0.80433,0.49676 0.54646,0.15248 0.74066,0.12108 1.42038,-0.22969 0.97382,-0.50253 1.15996,-0.36392 1.15996,0.86374 0,1.01863 -0.14033,1.09445 -0.87754,0.47413 -0.39818,-0.33504 -0.69032,-0.42333 -1.40072,-0.42333 -1.22419,0 -1.3404,0.17715 -1.24113,1.89197 0.0743,1.2835 0.11707,1.4148 0.60204,1.84812 0.40863,0.36511 0.46654,0.48776 0.26652,0.56452 -0.2529,0.097 -0.48804,0.0942 -2.2175,-0.0268 z m 5.92667,0.005 c -0.20955,-0.0404 -0.37764,-0.0871 -0.37353,-0.10394 0.004,-0.0168 0.10619,-0.40525 0.22685,-0.86321 0.20693,-0.78542 0.14915,-1.72481 -0.15423,-2.50775 -0.0814,-0.21015 0.007,-0.34739 0.31583,-0.48792 0.81163,-0.3698 0.94174,-0.15248 0.99485,1.66162 l 0.0486,1.6587 0.4798,0.0549 0.47981,0.0549 -0.0489,-1.66361 -0.0489,-1.66361 0.83906,-0.11216 c 0.46148,-0.0617 1.2029,-0.11885 1.64758,-0.127 0.71846,-0.0132 0.82693,0.0335 0.97367,0.41952 0.0908,0.23889 0.16514,0.97584 0.16514,1.63766 0,0.88369 0.0747,1.28584 0.28119,1.51402 0.37679,0.41635 0.17948,0.56589 -0.72088,0.54634 -0.87183,-0.0189 -1.04514,-0.13083 -0.75121,-0.485 0.31017,-0.37374 0.24884,-2.46068 -0.0821,-2.79157 -0.23367,-0.23367 -0.3065,-0.23339 -0.72115,0.003 -0.45066,0.25672 -0.46046,0.29604 -0.42747,1.71655 0.0318,1.36837 0.0119,1.45969 -0.33867,1.55368 -0.41054,0.11008 -2.1856,0.10051 -2.78542,-0.015 z m 6.74975,-0.31404 c -0.90139,-0.75846 -0.91422,-2.3448 -0.027,-3.33776 0.39101,-0.43761 0.61047,-0.539 1.16671,-0.539 0.79784,0 1.55088,0.58129 1.55088,1.19716 0,0.51633 -0.24085,0.63364 -1.34794,0.65654 -0.92968,0.0192 -0.93773,0.0239 -0.90056,0.51708 0.0489,0.64911 0.44991,0.92352 1.34953,0.92352 0.72493,0 0.83843,0.0833 0.60004,0.44032 -0.45065,0.67491 -1.67221,0.74751 -2.39165,0.14214 z m 1.57805,-2.7646 c 0.13827,-0.22372 -0.36812,-0.58006 -0.66331,-0.46678 -0.42118,0.16162 -0.30518,0.61692 0.15718,0.61692 0.22734,0 0.4551,-0.0676 0.50613,-0.15014 z m 14.0242,3.00681 c -0.11642,-0.11829 -0.21167,-0.42487 -0.21167,-0.68129 0,-0.4674 0.11142,-0.58178 1.34161,-1.37725 0.75105,-0.48565 0.80958,-0.71222 0.27454,-1.06279 -0.42388,-0.27774 -0.4494,-0.27274 -0.85793,0.16807 -0.23158,0.24988 -0.49691,0.40744 -0.58964,0.35013 -0.34129,-0.21093 -0.15077,-0.60298 0.53416,-1.09914 1.41025,-1.02158 2.17593,-0.45689 2.17593,1.60478 0,1.12438 0.11593,1.44216 0.52611,1.44216 0.27739,0 0.32055,-0.13126 0.32055,-0.97479 0,-0.53613 -0.0752,-1.23708 -0.16717,-1.55767 -0.19358,-0.675 0.002,-0.90548 0.66911,-0.7901 0.2295,0.0397 0.82806,-0.014 1.33013,-0.11935 0.89292,-0.18729 0.92172,-0.18117 1.3184,0.27999 0.32301,0.37553 0.40553,0.66368 0.40553,1.41605 0,0.51951 0.0901,1.24516 0.20013,1.61253 0.16555,0.55256 0.15823,0.69443 -0.0423,0.82118 -0.19417,0.12271 -1.29011,0.0555 -1.47086,-0.0902 -0.0237,-0.0191 0.0805,-0.28239 0.23151,-0.58511 0.29557,-0.59248 0.215,-2.08382 -0.13539,-2.50602 -0.26144,-0.31501 -0.71886,-0.26418 -1.06505,0.11836 -0.26068,0.28804 -0.28625,0.52049 -0.18499,1.68137 l 0.11751,1.34711 -0.77256,0.11586 c -0.42492,0.0637 -1.02023,0.0646 -1.32293,0.002 -0.66897,-0.13838 -1.04668,-0.13927 -1.82036,-0.004 -0.37988,0.0663 -0.66866,0.0262 -0.80433,-0.11165 z m 1.57329,-1.00526 c 0.19857,-0.32129 -0.091,-0.40057 -0.38595,-0.10566 -0.26398,0.26398 -0.26444,0.28625 -0.006,0.28625 0.15417,0 0.33052,-0.0813 0.39191,-0.18059 z m 6.86202,0.99904 c -1.60971,-0.60001 -1.19922,-3.86645 0.48589,-3.86645 0.45069,0 0.44059,0.0972 -0.0735,0.70822 -0.52377,0.62246 -0.55287,1.45209 -0.0724,2.06295 0.37082,0.47142 0.96898,0.58249 1.30851,0.24297 0.3058,-0.30581 0.25538,-2.09975 -0.0731,-2.6011 -0.25834,-0.39427 -0.25579,-0.4444 0.0391,-0.77024 0.30534,-0.33739 0.31535,-0.44694 0.19019,-2.0816 -0.0309,-0.40316 0.0479,-0.52043 0.43862,-0.65264 0.26194,-0.0886 0.5041,-0.13332 0.53814,-0.0993 0.034,0.034 0.1042,1.34895 0.15591,2.92203 0.0517,1.57308 0.14123,3.11185 0.19894,3.41949 0.0919,0.48994 0.0555,0.57015 -0.29349,0.64651 -0.66074,0.14458 -2.51912,0.18977 -2.84277,0.0691 z m 3.71225,-0.22802 c -0.31641,-0.3368 -0.35636,-0.46903 -0.19151,-0.63388 0.16485,-0.16485 0.3133,-0.14804 0.71163,0.0806 0.4712,0.27043 1.00598,0.25448 1.00598,-0.03 0,-0.0693 -0.381,-0.47696 -0.84666,-0.90591 -0.94003,-0.86591 -1.07928,-1.40859 -0.508,-1.97986 0.60606,-0.60607 1.06188,-0.37988 0.67841,0.33665 -0.13962,0.26088 -0.068,0.37634 0.42055,0.6783 1.26907,0.78432 1.59569,1.72446 0.85607,2.46408 -0.57903,0.57902 -1.57756,0.57435 -2.12647,-0.01 z m 1.62743,-3.15802 c -0.14109,-0.20145 -0.21712,-0.43005 -0.16894,-0.508 0.1647,-0.26648 0.73278,-0.1422 0.91615,0.20043 0.36139,0.67525 -0.29921,0.94717 -0.74721,0.30757 z m -36.16933,-2.67528 c 0,-0.62775 0.41015,-0.85422 0.8146,-0.44977 0.34507,0.34508 0.10356,0.83827 -0.45089,0.92075 -0.30549,0.0455 -0.36371,-0.0299 -0.36371,-0.47098 z m 45.10909,-0.10352 c -0.13251,-0.52798 0.0995,-0.79784 0.62045,-0.72161 0.52549,0.0769 0.59098,0.38749 0.17038,0.80809 -0.46197,0.46197 -0.65857,0.44047 -0.79083,-0.0865 z m 2.49103,-7.84978 c -0.937,-0.0722 -1.29939,-0.17115 -1.43847,-0.39283 -0.35422,-0.56458 0.069,-0.88016 1.30572,-0.97366 1.78445,-0.13491 1.68898,0.20073 1.67025,-5.87158 -0.0203,-6.56747 -0.15873,-9.50082 -0.47193,-9.9976 -0.17108,-0.27136 -0.46993,-0.40614 -1.08002,-0.48707 -0.46392,-0.0615 -0.97822,-0.21217 -1.14291,-0.33472 -0.28364,-0.21109 -0.28053,-0.242 0.059,-0.58635 0.35254,-0.35751 0.45191,-0.36347 6.01134,-0.36058 6.23059,0.003 7.29574,0.12071 9.19294,1.01379 1.97898,0.93156 3.73256,2.99096 4.50875,5.29509 0.42562,1.26342 0.50946,3.7465 0.17955,5.31768 -0.32815,1.56272 -1.27571,3.32787 -2.49124,4.64076 -0.84836,0.91629 -1.37591,1.30961 -2.47624,1.84614 -0.76903,0.37499 -1.80201,0.76429 -2.29555,0.86511 -0.92366,0.18871 -9.177,0.20718 -11.53122,0.0258 z m 3.36564,-6.36183 c -0.013,-2.98026 -0.0402,-5.72346 -0.0605,-6.09599 -0.0202,-0.37254 -0.0522,-1.83939 -0.071,-3.25967 l -0.0343,-2.58233 h -0.69221 -0.69222 l 0.1019,0.635 c 0.21705,1.3525 0.42925,6.93228 0.42662,11.21833 -0.002,3.57561 -0.0519,4.57334 -0.24475,4.91066 -0.36617,0.64054 -0.3182,0.70019 0.51805,0.64428 l 0.77206,-0.0516 z m 8.57482,4.59165 c 2.42155,-1.16049 4.35522,-3.57916 4.80629,-6.01176 0.83709,-4.5144 -1.80028,-9.00598 -5.92743,-10.0947 -0.49027,-0.12933 -0.88515,-0.15834 -0.94032,-0.0691 -0.0523,0.0846 0.0427,0.15556 0.21123,0.1576 1.11797,0.0136 3.27055,1.78767 4.19911,3.46079 0.89948,1.62074 1.17593,2.78656 1.16609,4.9175 -0.007,1.47673 -0.0875,2.09071 -0.38963,2.96333 -0.79336,2.29176 -2.10605,3.8926 -3.8446,4.68852 -0.50012,0.22897 -0.90932,0.44882 -0.90932,0.48856 0,0.18791 0.53445,0.0236 1.62858,-0.50077 z m -2.13658,-0.0875 c 1.54891,-0.48322 2.57986,-1.19469 3.45628,-2.38522 1.20862,-1.64181 1.66602,-3.0962 1.65842,-5.27329 -0.0179,-5.13398 -3.10634,-8.16489 -8.0551,-7.90514 -0.80178,0.0421 -1.48368,0.10927 -1.51538,0.14932 -0.0899,0.11359 0.21603,15.45268 0.3135,15.71859 0.12272,0.33479 2.70088,0.14542 4.14228,-0.30426 z m -118.660333,1.74658 c -0.11642,-0.0541 -0.21167,-0.35574 -0.21167,-0.67036 0,-0.60922 0.18005,-0.70828 1.87189,-1.02988 1.27504,-0.24237 1.1764,0.37901 1.17362,-7.39283 -0.002,-5.27067 -0.0547,-7.08266 -0.2158,-7.40237 -0.21284,-0.4224 -0.79369,-0.6727 -2.23704,-0.96398 -0.56559,-0.11414 -0.68594,-0.21111 -0.72951,-0.58782 -0.0369,-0.31862 0.0378,-0.47682 0.254,-0.53859 0.31801,-0.0908 5.74318,-0.17732 8.47651,-0.13512 1.54663,0.0239 1.56633,0.0294 1.56633,0.44278 0,0.4237 -0.34631,0.58267 -2.25339,1.03439 -0.97745,0.23152 -0.97168,0.1802 -0.92343,8.21439 l 0.0442,7.35061 1.40846,0.0494 c 1.77268,0.0621 4.20056,-0.34893 5.27418,-0.89298 1.06943,-0.54192 2.7113,-2.07005 3.6747,-3.42013 0.80815,-1.13252 0.91742,-1.20734 1.22388,-0.83808 0.14532,0.1751 0.12487,0.51856 -0.0832,1.397 -0.15349,0.64812 -0.28969,2.01482 -0.30704,3.081 -0.0238,1.46529 -0.089,1.95284 -0.27709,2.07201 -0.13525,0.0857 -1.57941,0.15108 -3.20925,0.14525 -1.62983,-0.006 -5.51603,0.0331 -8.636,0.0865 -3.11996,0.0534 -5.76791,0.0529 -5.88433,-0.001 z m 4.699,-9.0071 c 0,-6.92053 0.0368,-8.1428 0.25422,-8.45328 0.25233,-0.36024 0.24473,-0.36337 -1.01639,-0.41868 -0.69884,-0.0306 -1.27044,-0.0336 -1.27022,-0.007 1.6e-4,0.0271 0.17184,0.28101 0.38139,0.56435 0.37558,0.50783 0.38174,0.59985 0.43283,6.47014 0.0285,3.27524 0.002,6.66361 -0.0588,7.5297 -0.0992,1.41214 -0.1568,1.61756 -0.55811,1.98967 l -0.4475,0.41495 h 1.14127 1.14127 z m 10.32933,7.00937 c 0.79733,-0.3956 1.80227,-1.55511 2.15291,-2.48407 0.1673,-0.44322 -0.0626,-0.27756 -1.37041,0.98767 -0.86429,0.83611 -1.73682,1.5727 -1.93896,1.63686 -0.49,0.15552 -0.47713,0.48663 0.0135,0.34646 0.20955,-0.0599 0.7239,-0.27899 1.143,-0.48692 z m 4.75856,1.9357 c -1.02462,-0.10396 -1.4263,-0.46219 -1.09937,-0.98047 0.18731,-0.29696 0.62295,-0.45043 1.81126,-0.63807 0.35444,-0.056 0.80283,-0.26015 0.99641,-0.45373 0.34768,-0.34768 0.351,-0.43705 0.27303,-7.34722 -0.057,-5.04739 -0.13491,-7.06271 -0.27996,-7.23748 -0.18997,-0.22891 -0.75015,-0.40701 -2.31126,-0.73486 -0.50026,-0.10506 -0.69054,-0.23466 -0.72784,-0.49573 -0.0278,-0.19442 0.0484,-0.43215 0.16933,-0.5283 0.13165,-0.10468 2.20736,-0.22207 5.1739,-0.2926 4.57269,-0.10871 4.96258,-0.0956 5.06462,0.17032 0.20117,0.52423 -0.21612,0.83009 -1.6984,1.24487 l -1.46569,0.41013 0.044,7.6332 0.044,7.63319 2.08167,-0.0344 c 1.21532,-0.0201 2.51908,-0.14502 3.13267,-0.30018 1.82577,-0.46167 3.7266,-2.02679 5.41819,-4.46126 0.20577,-0.29615 0.48844,-0.51742 0.62814,-0.49172 0.30172,0.0555 0.30744,0.522 0.0292,2.37884 -0.10918,0.72852 -0.19851,1.96227 -0.19851,2.74167 0,0.87865 -0.0734,1.46245 -0.19317,1.53647 -0.10624,0.0657 -3.40189,0.14645 -7.32366,0.17952 -3.92178,0.0331 -7.4734,0.0827 -7.8925,0.11035 -0.4191,0.0276 -1.17335,0.008 -1.67611,-0.0425 z m 3.74643,-1.53208 c 0.0745,-0.32597 0.1158,-3.9569 0.0917,-8.06874 -0.0418,-7.14152 -0.0294,-7.492 0.278,-7.83167 l 0.3218,-0.35559 h -1.20406 -1.20407 l 0.2746,0.71967 c 0.23688,0.62082 0.27655,1.71592 0.28882,7.97278 l 0.0142,7.25312 -0.46567,0.40109 c -0.25611,0.2206 -0.46566,0.44665 -0.46566,0.50234 0,0.0557 0.43533,0.0784 0.9674,0.0505 0.9532,-0.05 0.9694,-0.0595 1.10292,-0.64345 z m 10.01243,-0.23281 c 1.08092,-0.45164 2.23713,-1.71834 2.56963,-2.81519 0.0925,-0.30526 -0.22087,-0.0658 -1.12369,0.85862 -0.68861,0.70507 -1.51872,1.48254 -1.84469,1.72771 -0.65034,0.48915 -0.47081,0.59218 0.39875,0.22886 z m 5.61473,1.81049 c -0.85102,-0.0995 -1.13357,-0.33218 -1.06904,-0.88046 0.0549,-0.46645 0.3548,-0.5926 1.86393,-0.78402 0.43837,-0.0556 0.9709,-0.24188 1.1834,-0.41396 l 0.38637,-0.31286 -0.0467,-6.83219 c -0.028,-4.10194 -0.11667,-7.0508 -0.22179,-7.37924 -0.18518,-0.57858 -0.46763,-0.70859 -2.27182,-1.04564 -0.87058,-0.16265 -1.157,-0.43321 -0.92247,-0.87142 0.21699,-0.40545 1.33011,-0.49606 6.11487,-0.49775 3.85155,-0.001 4.20285,0.0233 4.57053,0.32104 0.38968,0.31555 0.39149,0.33003 0.0839,0.66989 -0.18898,0.20882 -0.62737,0.38957 -1.09919,0.45319 -1.23128,0.16603 -1.87064,0.41349 -2.09701,0.81164 -0.15625,0.27482 -0.20928,2.12367 -0.21037,7.33464 -0.002,8.17896 -0.15126,7.56767 1.89375,7.74054 0.71192,0.0602 1.32691,0.14192 1.36664,0.18165 0.0397,0.0397 0.0841,0.31817 0.0985,0.61876 0.0222,0.46154 -0.0458,0.56638 -0.43731,0.67432 -0.54528,0.15031 -8.20196,0.32691 -9.18625,0.21187 z m 6.34785,-1.06968 c 0,-0.0931 -0.0762,-0.16933 -0.16933,-0.16933 -0.0931,0 -0.16933,0.0762 -0.16933,0.16933 0,0.0931 0.0762,0.16933 0.16933,0.16933 0.0931,0 0.16933,-0.0762 0.16933,-0.16933 z m -1.64167,-0.32687 c -0.33441,-0.31156 -0.35673,-0.56964 -0.47614,-5.50577 -0.0689,-2.84839 -0.0925,-6.33276 -0.0524,-7.74305 l 0.0728,-2.56416 0.57665,-0.48141 0.57665,-0.4814 h -1.56429 -1.56428 l 0.30068,0.55033 c 0.27531,0.5039 0.30068,1.18817 0.30068,8.10986 0,6.96178 -0.0234,7.58545 -0.29633,7.88733 -0.16299,0.1803 -0.29634,0.37896 -0.29634,0.44147 0,0.0625 0.62397,0.11367 1.3866,0.11367 1.37821,0 1.38447,-0.002 1.03573,-0.32687 z m 15.464063,0.70787 c -0.42145,-0.83222 -2.42559,-5.82169 -4.473323,-11.13664 -1.8718,-4.85833 -2.18993,-5.32284 -3.83154,-5.59456 -1.03616,-0.1715 -1.31267,-0.36679 -1.25201,-0.8842 0.0769,-0.6562 0.69462,-0.72716 5.877963,-0.67532 l 4.50386,0.0451 v 0.50392 c 0,0.54179 -0.19752,0.65502 -1.49112,0.85478 -0.85169,0.13152 -1.36775,0.6458 -1.22375,1.21953 0.17684,0.7046 3.68047,9.0211 3.80046,9.0211 0.0606,0 0.19358,-0.20955 0.29555,-0.46567 1.9407,-4.87463 3.27552,-8.44943 3.27552,-8.77217 0,-0.47561 -0.52492,-0.87021 -1.36351,-1.025 -1.20618,-0.22264 -1.77346,-1.01105 -1.01829,-1.4152 0.50932,-0.27258 7.54121,-0.23368 7.77082,0.043 0.34386,0.41432 -0.15011,1.02967 -0.93399,1.16349 -1.49516,0.25524 -2.22853,0.94713 -2.93276,2.76689 -0.21625,0.5588 -0.94324,2.2733 -1.61554,3.81 -0.6723,1.5367 -1.85038,4.3561 -2.61796,6.26533 -1.35828,3.37851 -2.12331,5.08 -2.2841,5.08 -0.0434,0 -0.26226,-0.36195 -0.48628,-0.80433 z m 0.82555,-1.90682 0.28182,-0.84848 -1.27376,-2.91918 c -2.75184,-6.30662 -4.17333,-9.96119 -4.17333,-10.72941 0,-0.40761 0.0616,-0.74111 0.13697,-0.74111 0.0753,0 0.28488,-0.11187 0.46566,-0.24861 0.29568,-0.22364 0.14524,-0.24916 -1.497273,-0.254 l -1.82598,-0.005 0.55598,0.55945 c 0.56426,0.56778 1.39715,2.49034 5.313113,12.2642 0.82951,2.07037 1.55922,3.76582 1.62159,3.76766 0.0624,0.002 0.24021,-0.37846 0.39521,-0.84513 z M 111.85467,130.43 c 0.32408,-0.39049 0.16452,-0.45138 -1.03443,-0.39474 l -1.07796,0.0509 0.67733,0.44551 c 0.69917,0.45987 0.98586,0.43956 1.43506,-0.1017 z m -2.46977,17.9565 c -0.051,-0.13293 -0.0677,-0.418 -0.037,-0.63348 0.0464,-0.32664 0.18942,-0.41083 0.85958,-0.50621 1.49349,-0.21257 2.4479,-1.14297 3.01239,-2.93663 0.11725,-0.37253 0.84793,-2.18364 1.62375,-4.02469 1.82948,-4.34146 2.434,-6.07657 2.434,-6.98614 0,-0.65757 0.0843,-0.81818 0.76337,-1.45467 0.44195,-0.41423 0.97815,-1.17009 1.27349,-1.79516 0.28056,-0.59382 0.57942,-1.03684 0.66413,-0.98449 0.0847,0.0523 0.74028,1.59893 1.45682,3.43684 3.99716,10.25265 5.34779,13.51975 5.72825,13.85631 0.26635,0.23562 0.73956,0.39006 1.40977,0.46011 1.33898,0.13995 1.5735,0.24747 1.5735,0.72139 0,0.76666 -0.40911,0.83053 -5.70192,0.89014 -4.85712,0.0547 -4.94308,0.0497 -5.12829,-0.29633 -0.13105,-0.24487 -0.13546,-0.45084 -0.0145,-0.67688 0.17494,-0.32689 0.44539,-0.41291 1.89851,-0.60383 1.22175,-0.16052 1.25441,-0.29812 0.54838,-2.31054 -0.33885,-0.96583 -0.75042,-1.89709 -0.9146,-2.06948 -0.26382,-0.27699 -0.5606,-0.31064 -2.55362,-0.28948 -1.24031,0.0131 -2.34585,0.0992 -2.45675,0.19128 -0.33042,0.27422 -1.66278,4.22113 -1.48496,4.39895 0.0869,0.087 0.536,0.20184 0.99791,0.25531 1.59991,0.18522 1.62791,0.1995 1.56979,0.80084 -0.0515,0.53273 -0.0746,0.54688 -1.06863,0.65315 -0.5588,0.0597 -2.21854,0.11689 -3.68832,0.127 -2.17092,0.0149 -2.68971,-0.027 -2.76506,-0.22331 z m 3.60094,-1.03562 c 0.0551,-0.14372 0.0546,-0.30697 -10e-4,-0.3628 -0.12061,-0.1206 -0.61768,0.26206 -0.61768,0.4755 0,0.25554 0.51347,0.16204 0.6189,-0.1127 z m 11.86658,0.0167 c 0.0217,-0.0175 -0.72428,-1.96991 -1.65778,-4.33862 -0.9335,-2.36871 -2.27315,-5.77038 -2.977,-7.55926 l -1.27973,-3.25253 -0.48747,0.3604 c -0.59353,0.43882 -0.56702,0.59552 0.47179,2.78847 0.40924,0.86392 1.07723,2.58208 1.48441,3.81814 0.40718,1.23605 1.16512,3.26504 1.68432,4.50885 0.51919,1.24381 0.94398,2.4581 0.94398,2.69842 0,0.24032 -0.16092,0.60823 -0.3576,0.81759 l -0.3576,0.38065 1.2466,-0.0951 c 0.68563,-0.0523 1.26437,-0.10946 1.28608,-0.127 z m -5.33114,-6.80671 c 0.34925,-0.0577 0.635,-0.18095 0.635,-0.27383 0,-0.26397 -1.75861,-4.86712 -1.85839,-4.86434 -0.0973,0.003 -1.60994,3.90725 -1.78703,4.61282 -0.0918,0.36562 -0.0449,0.44958 0.28617,0.51258 0.6319,0.12024 2.03427,0.12682 2.72425,0.0128 z m 14.95616,7.94049 c -1.95269,-0.0325 -3.11852,-0.11942 -3.26823,-0.24367 -0.128,-0.10623 -0.20982,-0.38634 -0.18183,-0.62247 0.0463,-0.39041 0.15492,-0.44627 1.19819,-0.61616 0.78448,-0.12775 1.26642,-0.30627 1.524,-0.56454 l 0.37671,-0.37772 -0.0567,-6.72528 c -0.0674,-7.9959 -0.004,-7.69252 -1.72133,-8.30021 -1.38049,-0.48862 -1.70702,-0.76997 -1.33055,-1.14644 0.22254,-0.22254 0.7474,-0.2638 3.21128,-0.25246 2.56629,0.0118 2.99974,0.0532 3.3686,0.32167 0.3688,0.26841 2.54719,2.59598 7.72852,8.25779 0.75819,0.8285 1.42184,1.46501 1.47478,1.41447 0.41107,-0.39243 0.27273,-7.93389 -0.15335,-8.35998 -0.12494,-0.12494 -0.73052,-0.32214 -1.34573,-0.43822 -1.11294,-0.21 -1.1183,-0.21371 -1.06706,-0.74049 l 0.0515,-0.52942 1.98383,-0.0847 c 1.0911,-0.0466 2.7294,-0.0466 3.64066,0 l 1.65684,0.0847 v 0.50568 c 0,0.32154 -0.0925,0.51802 -0.254,0.53957 -0.1397,0.0186 -0.62144,0.0823 -1.07054,0.14152 -1.5654,0.20635 -1.46946,-0.37887 -1.46946,8.96323 0,5.66271 -0.0563,8.23748 -0.18187,8.31508 -0.24772,0.1531 -0.76353,-0.35147 -2.69104,-2.63242 -0.90508,-1.07103 -2.13388,-2.48497 -2.73068,-3.14209 -0.59679,-0.65712 -2.49265,-2.77006 -4.21301,-4.69543 -2.30543,-2.58014 -3.16366,-3.43684 -3.26377,-3.25795 -0.0747,0.13349 -0.10219,1.44634 -0.0611,2.91743 0.0411,1.47109 0.0811,4.06536 0.0888,5.76504 0.0165,3.63053 0.0303,3.663 1.65109,3.85964 1.31239,0.15922 1.58026,0.31757 1.58026,0.93418 0,0.3876 -0.10179,0.54493 -0.43436,0.67137 -0.2389,0.0908 -0.56275,0.14797 -0.71967,0.12698 -0.15692,-0.021 -1.65128,-0.0609 -3.32081,-0.0887 z m 0.66538,-1.39654 c -0.23343,-0.25793 -0.36007,-0.29315 -0.53425,-0.1486 -0.37344,0.30993 -0.26233,0.48667 0.30595,0.48667 0.5232,0 0.52792,-0.007 0.2283,-0.33807 z m 12.54737,-2.32559 c -0.0774,-0.65898 -0.20718,-1.02009 -0.40431,-1.12542 -0.15965,-0.0853 -0.6243,-0.50591 -1.03256,-0.93467 -1.20017,-1.26047 -9.89755,-10.85896 -10.22943,-11.28929 -0.63072,-0.81778 -2.20316,-1.43319 -2.6135,-1.02285 -0.0486,0.0486 1.01624,1.25367 2.3664,2.67783 1.35016,1.42417 3.16418,3.3895 4.03115,4.3674 3.34096,3.76842 4.5131,5.05101 6.07397,6.64633 0.88844,0.90805 1.68442,1.651 1.76884,1.651 0.0872,0 0.10422,-0.41923 0.0394,-0.97033 z m 0.40349,-14.39667 c 0.001,-0.11642 -0.1498,-0.21167 -0.33607,-0.21167 -0.37674,0 -0.44718,0.33176 -0.13641,0.64253 0.21856,0.21855 0.46731,-0.008 0.47248,-0.43086 z m 70.07767,18.07024 c -0.52815,-0.0812 -1.46659,-0.37729 -2.08542,-0.65788 l -1.12515,-0.51018 -0.28526,0.50134 c -0.15689,0.27573 -0.36525,0.50182 -0.46304,0.50241 -0.45184,0.003 -0.56244,-0.41256 -0.46841,-1.75853 0.0528,-0.75519 0.01,-2.15879 -0.095,-3.11911 -0.20729,-1.89577 -0.10127,-2.40263 0.50255,-2.40263 0.25336,0 0.45439,0.25255 0.77507,0.97367 0.23814,0.53552 0.66486,1.48922 0.94827,2.11935 0.55328,1.23017 1.64121,2.40183 2.40917,2.59457 1.41052,0.35402 3.2754,-0.43396 3.75744,-1.58764 0.32817,-0.78544 0.21653,-2.10378 -0.22997,-2.71556 -0.18186,-0.24918 -1.24025,-1.06517 -2.35199,-1.81331 -3.04974,-2.05233 -4.20234,-3.81604 -4.18128,-6.39814 0.0149,-1.81753 1.29552,-3.75287 3.06678,-4.63443 0.46948,-0.23365 1.0022,-0.30565 2.22585,-0.3008 1.36515,0.005 1.75198,0.0727 2.55536,0.44441 0.92991,0.43029 0.95391,0.4325 1.35467,0.1244 0.87449,-0.6723 0.922,-0.54002 1.16174,3.23482 0.0858,1.35043 0.0928,2.51954 0.0156,2.59802 -0.29134,0.29621 -0.8871,-0.28635 -1.42668,-1.39507 -1.4273,-2.93276 -2.54842,-3.757 -3.9488,-2.90314 -0.80288,0.48955 -1.11738,1.22158 -1.03199,2.40207 0.098,1.35514 0.59925,1.9183 3.09811,3.4809 1.1176,0.69886 2.24834,1.47239 2.51277,1.71894 0.68205,0.63595 1.23859,1.64537 1.53521,2.78451 0.68026,2.61242 -1.01842,5.48983 -3.82567,6.48028 -0.8683,0.30636 -3.14941,0.42909 -4.3999,0.23673 z m 4.43159,-2.02591 c 0,-0.0931 -0.0762,-0.16933 -0.16933,-0.16933 -0.0931,0 -0.16933,0.0762 -0.16933,0.16933 0,0.0931 0.0762,0.16933 0.16933,0.16933 0.0931,0 0.16933,-0.0762 0.16933,-0.16933 z m 1.08978,-1.26428 c 0.53139,-1.08883 0.54757,-2.24963 0.0451,-3.23466 -0.56754,-1.1126 -1.14151,-1.62877 -3.37643,-3.03639 -1.75156,-1.10321 -1.92261,-1.25974 -2.46859,-2.25918 -0.82609,-1.5122 -0.9217,-2.89926 -0.30438,-4.41635 0.24339,-0.59814 0.44252,-1.12675 0.44252,-1.17468 0,-0.23739 -1.0926,0.99331 -1.40704,1.58488 -0.72517,1.36433 -0.3672,3.54592 0.84198,5.13124 0.24243,0.31784 1.4022,1.20572 2.57725,1.97308 2.36437,1.54401 2.5527,1.71997 2.95688,2.76277 0.34402,0.8876 0.35156,1.56985 0.0291,2.63276 -0.22977,0.75731 -0.2266,0.812 0.0442,0.762 0.16045,-0.0296 0.4392,-0.35608 0.61949,-0.72547 z m -5.06911,-14.48372 c 0.0576,-0.0931 0.0285,-0.16933 -0.0647,-0.16933 -0.0931,0 -0.21642,0.0762 -0.27398,0.16933 -0.0576,0.0931 -0.0284,0.16934 0.0647,0.16934 0.0931,0 0.21642,-0.0762 0.27398,-0.16934 z m -46.05494,17.63195 c -0.3468,-0.0743 -0.55542,-0.25337 -0.668,-0.57351 -0.22474,-0.63902 -0.0591,-0.75303 1.4267,-0.98205 2.11008,-0.32525 1.90412,0.5549 1.80612,-7.71814 -0.0678,-5.72043 -0.13301,-7.26493 -0.31873,-7.54465 -0.16228,-0.24441 -0.67028,-0.46093 -1.66501,-0.70966 -1.1822,-0.29561 -1.44026,-0.41949 -1.48199,-0.71142 -0.0278,-0.19442 0.0518,-0.43837 0.17679,-0.54211 0.28678,-0.23801 17.84285,-0.34154 18.06644,-0.10654 0.22462,0.2361 0.42518,5.42258 0.21472,5.55265 -0.34524,0.21337 -0.66848,-0.0991 -1.23532,-1.19423 -1.21064,-2.33893 -2.39395,-2.84829 -6.61706,-2.84829 -1.55224,0 -2.88574,0.0644 -2.96333,0.1432 -0.16918,0.17175 -0.0889,6.40764 0.0848,6.58351 0.14778,0.14965 3.18616,-0.15461 3.69567,-0.37009 0.46802,-0.19793 1.43456,-1.59767 1.57275,-2.27769 0.11455,-0.56359 0.72004,-0.81101 1.08693,-0.44415 0.23914,0.2391 0.31495,7.23054 0.0832,7.66822 -0.0863,0.16298 -0.34715,0.29633 -0.57962,0.29633 -0.25307,0 -0.46123,-0.1189 -0.51876,-0.29633 -0.0528,-0.16298 -0.319,-0.76669 -0.59151,-1.34158 -0.67629,-1.42672 -1.38305,-1.7838 -3.39161,-1.71353 l -1.41351,0.0494 -0.0446,2.20133 c -0.0245,1.21073 0.0135,2.88713 0.0847,3.72533 l 0.12924,1.524 1.778,0.0488 c 2.08815,0.0573 3.78358,-0.17272 4.93974,-0.67009 0.93641,-0.40283 1.70146,-1.20128 3.00983,-3.14125 1.00173,-1.48528 1.21621,-1.66231 1.70018,-1.4033 0.40763,0.21816 0.40926,0.2666 0.0902,2.6856 -0.14298,1.08418 -0.20559,2.33247 -0.14571,2.90544 0.10206,0.97633 0.0921,1.00948 -0.35298,1.17871 -0.50143,0.19064 -17.07728,0.21471 -17.9582,0.0261 z m 4.53319,-7.72595 c -0.0434,-8.37586 -0.15225,-10.64515 -0.50419,-10.5101 -0.13774,0.0529 -0.507,0.0961 -0.82061,0.0961 h -0.57016 l 0.22919,0.55034 c 0.16955,0.40712 0.26645,2.24678 0.37235,7.06966 0.19539,8.89751 0.19856,8.7092 -0.15316,9.09751 -0.45431,0.50156 -0.3692,0.57638 0.59266,0.52101 l 0.889,-0.0512 z m 11.20964,6.03588 c 0.27956,-0.16327 0.6792,-0.55047 0.88809,-0.86045 0.36452,-0.54091 0.7787,-1.70387 0.65193,-1.83062 -0.0335,-0.0335 -0.58388,0.45752 -1.22308,1.09115 -0.63918,0.63362 -1.42886,1.36533 -1.75483,1.62601 l -0.59267,0.47396 0.76114,-0.1016 c 0.41863,-0.0559 0.98987,-0.23518 1.26942,-0.39845 z m -3.30056,-8.49091 c 0,-1.1176 -0.061,-2.032 -0.13558,-2.032 -0.0746,0 -0.30048,0.33937 -0.50199,0.75416 -0.20152,0.41478 -0.55809,0.87975 -0.79236,1.03326 l -0.42596,0.2791 0.7685,0.99874 c 0.42269,0.5493 0.84027,0.99874 0.92795,0.99874 0.0908,0 0.15944,-0.87432 0.15944,-2.032 z m 3.66133,-6.81567 c -0.15604,-0.80752 -0.65754,-1.1444 -1.69042,-1.13551 l -0.87024,0.007 0.59267,0.32637 c 0.32596,0.1795 0.85936,0.55508 1.18533,0.83463 0.76015,0.65189 0.91374,0.64542 0.78266,-0.033 z m 3.21897,16.93416 c -0.24075,-0.18055 -0.28966,-0.35888 -0.20457,-0.74623 0.10634,-0.48421 0.17113,-0.51816 1.33157,-0.69778 1.92507,-0.29797 1.79883,0.27846 1.70515,-7.78649 -0.0441,-3.79463 -0.11284,-7.06113 -0.1528,-7.25889 -0.0799,-0.39523 -0.57103,-0.63844 -1.84805,-0.91513 -0.9669,-0.20949 -1.27693,-0.41751 -1.27693,-0.85675 0,-0.57945 0.55399,-0.66278 4.34921,-0.65424 5.25666,0.0118 8.11139,0.2086 9.05009,0.62384 0.99906,0.44193 1.91654,1.26524 2.48217,2.2274 0.40276,0.68511 0.45894,0.95802 0.45716,2.22045 -0.002,1.16089 -0.0751,1.5767 -0.37957,2.14946 -0.50824,0.95597 -1.43637,1.82787 -2.34226,2.20037 -0.41041,0.16876 -0.74648,0.40587 -0.74684,0.52691 -0.002,0.40993 0.53966,1.26777 1.78757,2.83526 2.54431,3.19595 3.44632,3.87311 5.50319,4.13138 0.65402,0.0821 1.30032,0.24159 1.43621,0.35436 0.29833,0.24759 0.32652,1.20174 0.0439,1.48439 -0.14493,0.14492 -1.20603,0.2032 -3.69993,0.2032 h -3.49672 l -0.66042,-0.47891 c -1.14257,-0.82856 -2.77476,-2.99644 -4.8984,-6.50609 -0.54944,-0.90805 -1.05077,-1.651 -1.11405,-1.651 -0.24208,0 -0.26395,0.51277 -0.14283,3.34765 0.078,1.82506 0.20024,3.01506 0.32525,3.1657 0.11017,0.13275 0.63262,0.32701 1.16097,0.43167 0.52837,0.10467 1.09401,0.22829 1.257,0.27472 0.3593,0.10236 0.3887,0.71719 0.056,1.17223 -0.22613,0.3093 -0.51838,0.33197 -4.953,0.38423 -3.84246,0.0453 -4.7711,0.0117 -5.02905,-0.18171 z m 5.22394,-1.27083 c -0.32438,-0.77519 -0.39731,-2.08602 -0.42635,-7.66233 -0.0172,-3.30623 -0.0722,-6.67808 -0.12233,-7.493 l -0.091,-1.48166 h -0.58712 -0.58711 l 0.11081,0.889 c 0.061,0.48895 0.11918,4.29895 0.12941,8.46666 l 0.0186,7.57767 h 0.83956 c 0.73392,0 0.82394,-0.0373 0.71555,-0.29634 z m 9.9091,0.0206 c 0,-0.0585 -0.50081,-0.63729 -1.1129,-1.28615 -1.41147,-1.49622 -2.37556,-2.80705 -3.57181,-4.85642 -1.21705,-2.08498 -1.36456,-2.25462 -1.77128,-2.03695 -0.466,0.2494 -0.39631,0.59679 0.38644,1.92607 1.72371,2.92721 3.78551,5.70114 4.54555,6.1155 0.42921,0.23399 1.524,0.33309 1.524,0.13795 z m -5.37866,-9.42557 c 1.26171,-0.69621 2.0488,-2.55381 1.67231,-3.94678 -0.4495,-1.6631 -1.67657,-2.62409 -3.4013,-2.66374 -0.54891,-0.0126 -1.02796,0.0138 -1.06452,0.0588 -0.0366,0.0449 -0.0328,1.62081 0.008,3.50194 l 0.0749,3.42022 0.70006,0.0615 c 0.88033,0.0773 1.21927,0.004 2.01009,-0.43189 z m 2.55682,-0.84527 c 1.54149,-1.5415 1.39774,-4.01785 -0.29308,-5.0489 -0.76614,-0.46717 -1.04894,-0.41756 -0.63314,0.11106 0.1873,0.2381 0.46829,0.81755 0.62443,1.28766 0.40913,1.23175 0.21421,2.3577 -0.73548,4.24843 -0.18894,0.37619 0.40593,0.0331 1.03727,-0.59825 z m 6.80224,-7.06233 c -0.34004,-0.55977 -0.66989,-1.01737 -0.733,-1.01689 -0.0631,5.1e-4 -0.41954,0.1886 -0.79207,0.41805 -0.37253,0.22945 -0.73448,0.41956 -0.80433,0.42246 -0.25097,0.0104 -0.11776,-0.47307 0.4149,-1.50587 0.41444,-0.8036 0.50082,-1.11784 0.3672,-1.33611 -0.0961,-0.15697 -0.38529,-0.64735 -0.64266,-1.08973 l -0.46795,-0.80433 0.56642,0.006 c 0.31152,0.003 0.75692,0.1149 0.98975,0.248 0.71931,0.4112 1.06733,0.30977 1.49273,-0.43506 0.21563,-0.37755 0.48233,-0.65665 0.59266,-0.62021 0.11452,0.0378 0.24393,0.56546 0.30155,1.22945 0.0973,1.12097 0.12954,1.1891 0.889,1.87668 0.43343,0.39241 0.78806,0.84511 0.78806,1.006 0,0.25283 -0.12459,0.27966 -0.91843,0.19773 -1.06803,-0.11023 -1.11357,-0.0562 -1.11357,1.32126 0,0.49912 -0.0702,0.95088 -0.156,1.00391 -0.0858,0.053 -0.43423,-0.36157 -0.77426,-0.92134 z"
       id="path977" />
  </g>
</svg>
